<svg width="101" height="116" viewBox="0 0 101 116" fill="none" xmlns="http://www.w3.org/2000/svg">
<path d="M78.2062 61.351C77.7423 61.351 77.3944 61.5443 77.2011 61.8536C77.0465 61.5443 76.6599 61.351 76.196 61.351H76.0413V63.7479H76.3506V61.6603C76.7758 61.6603 77.0465 61.9309 77.0465 62.4335V63.0134H77.3171V62.4335C77.3171 61.9696 77.6263 61.6603 78.0129 61.6603V63.7479H78.3222V61.351H78.2062ZM73.9924 61.6217H74.611V63.7479H74.8816V61.6217H75.5001V61.351H73.9924V61.6217Z" fill="white"/>
<path d="M54.0059 55.359C53.1554 55.0497 51.6864 55.0111 50.4493 56.0162C49.2122 55.0111 47.7819 55.0497 46.8927 55.359C46.1969 55.6296 45.617 55.8229 44.5345 55.8229C45.617 58.0264 47.8592 59.5728 50.4493 59.5728C53.0781 59.5728 55.3203 58.0651 56.3641 55.8229C55.2816 55.8229 54.7404 55.6296 54.0059 55.359Z" fill="white"/>
<path d="M50.4494 0C32.5892 0 18.1696 14.4583 18.1696 32.2799C18.1696 47.55 28.8006 60.3846 43.0656 63.7092C31.7387 57.6785 27.1383 43.7614 32.5505 32.0866C33.401 36.6869 36.455 40.7847 40.9394 42.9109C35.102 29.2645 39.3931 13.1826 51.4932 4.29109C49.0964 12.4094 52.7303 19.8318 60.5779 25.4373C69.5467 31.8546 69.8946 44.9598 62.0083 52.0344C65.1396 51.2998 68.0777 49.5989 70.2039 46.9314C68.8509 53.8513 64.5211 60.114 57.8718 63.6706C72.1368 60.3073 82.7679 47.55 82.7679 32.2412C82.7293 14.4583 68.3096 0 50.4494 0Z" fill="white"/>
<path d="M94.4427 72.6007C94.4427 72.6007 94.4427 74.6882 94.4427 75.7707C94.4427 76.8531 94.7133 77.8969 95.6025 78.5928C96.1437 79.018 96.8009 79.2886 97.4581 79.4819C98.038 79.6752 98.6565 79.9458 99.0431 80.4097C99.3524 80.7963 99.391 81.2602 99.391 81.7241V82.6519H100.899V75.2681H99.391V78.6701C98.6565 78.1675 97.7287 77.9742 96.9555 77.5103C96.2597 77.0851 96.0664 76.4279 96.0664 75.6547C96.0664 74.9202 96.0664 72.562 96.0664 72.562L94.4427 72.6007ZM87.059 77.3943C86.0152 78.7087 84.9714 79.9845 83.889 81.3375C83.5024 81.8014 83.1545 82.2653 82.7679 82.7679H89.8424V81.2988H85.7832L88.3347 78.1289C88.6826 77.7036 89.0305 77.2397 89.2238 76.7371C89.4558 76.2346 89.5331 75.6934 89.4944 75.1135C89.3785 74.0697 88.644 73.2192 87.7162 72.794C86.7497 72.3301 85.5513 72.3687 84.6235 72.8713C83.6957 73.3739 82.9998 74.3017 82.9612 75.3454C82.8838 76.4279 83.4251 77.3943 84.2755 78.0902L85.126 76.9691C84.8168 76.6598 84.5462 76.2732 84.4688 75.8867C84.3915 75.4614 84.4688 75.0362 84.7394 74.6882C85.242 74.031 86.2471 73.7991 87.0203 74.1857C87.4069 74.379 87.6775 74.6882 87.8708 75.0748C87.9868 75.5001 87.9481 75.964 87.7548 76.3506C87.6002 76.6985 87.2909 77.0078 87.059 77.3943ZM70.8997 74.6882C72.1368 73.7604 73.9151 73.7218 75.1521 74.6109C76.5825 75.616 77.1624 77.549 76.4665 79.1726C75.848 80.603 74.4176 81.5308 72.8713 81.4148C71.3636 81.2988 70.0492 80.2164 69.5853 78.786C69.1214 77.2784 69.6626 75.616 70.8997 74.6882ZM71.7115 82.6905C73.8378 83.2318 76.1573 82.4199 77.3943 80.6417C78.6701 78.8247 78.6314 76.3119 77.317 74.5723C77.1624 74.379 77.0077 74.1857 76.8145 73.9924C75.2295 72.4847 72.794 72.0595 70.8224 72.9486C68.8121 73.8764 67.6137 76.0026 67.807 78.2062C68.039 80.3324 69.6626 82.188 71.7115 82.6905ZM60.7712 77.3943L57.6012 81.3375C57.2146 81.8014 56.8667 82.2653 56.4801 82.7679H63.5546V81.2988H59.4954L62.0469 78.1289C62.3948 77.7036 62.7428 77.2397 62.9361 76.7371C63.168 76.2346 63.2453 75.6934 63.2067 75.1135C63.0907 74.0697 62.3562 73.2192 61.4284 72.794C60.4619 72.3301 59.2635 72.3687 58.3357 72.8713C57.4079 73.3739 56.712 74.3017 56.6734 75.3454C56.5961 76.4279 57.1373 77.3943 57.9878 78.0902L58.8382 76.9691C58.529 76.6598 58.2584 76.2732 58.1811 75.8867C58.1037 75.4614 58.1811 75.0362 58.4517 74.6882C58.9542 74.031 59.9593 73.7991 60.7325 74.1857C61.1191 74.379 61.4284 74.6882 61.583 75.0748C61.699 75.5001 61.6603 75.964 61.5057 76.3506C61.3511 76.6985 61.0418 77.0078 60.7712 77.3943ZM44.7279 81.4148C43.8774 81.2602 43.2975 80.5643 43.2975 79.7138H41.7512C41.7512 80.5257 42.0218 81.2988 42.6017 81.9174C43.1816 82.4973 43.9934 82.8065 44.8052 82.8838C45.6557 82.9612 46.5448 82.7679 47.202 82.2653C47.8592 81.8014 48.2845 81.1056 48.3618 80.2937C48.4391 79.3659 48.1685 78.4381 47.434 77.8582C46.8928 77.3943 46.1969 77.1624 45.5397 76.9304C44.9212 76.6985 44.2253 76.4665 43.7614 75.964C43.3362 75.4614 43.4522 74.7269 43.8387 74.3017C44.3027 73.8378 44.9985 73.7604 45.5397 73.9537C46.1969 74.147 46.5835 74.7656 46.5835 75.4228H48.1298C48.1298 74.6882 47.8979 73.9537 47.3953 73.4125C46.9314 72.9099 46.2356 72.562 45.5397 72.4847C44.8052 72.4074 44.032 72.4847 43.3748 72.8713C42.7563 73.2192 42.2537 73.7604 42.0218 74.4563C41.7898 75.1135 41.8672 75.8867 42.1764 76.5052C42.563 77.1624 43.2202 77.549 43.9161 77.8582C44.6506 78.1675 45.5397 78.3608 46.1969 78.8634C46.4675 79.0567 46.6608 79.3273 46.7768 79.6365C46.8541 79.9458 46.8541 80.3324 46.6995 80.603C46.3516 81.3375 45.4624 81.5695 44.7279 81.4148ZM35.4499 72.6007V74.031C35.9524 73.9151 36.4936 73.8378 37.0349 73.7991V72.6007H35.4499ZM35.4499 74.9202V82.7292H37.0349V74.6882C36.455 74.6882 35.9524 74.7656 35.4499 74.9202ZM28.2207 77.0851C27.8341 77.549 27.2542 77.7809 26.7517 78.0515C26.1332 78.3221 25.5146 78.6701 24.9734 79.134V74.0697H26.5197C27.5249 74.0697 28.53 74.5723 28.646 75.6547C28.6846 76.1959 28.5686 76.6985 28.2207 77.0851ZM29.6511 77.6263C29.9603 77.201 30.1536 76.7371 30.231 76.1959C30.3469 75.1135 29.999 74.031 29.0712 73.3739C27.8341 72.4847 26.3264 72.6007 24.8961 72.6007H23.4271V82.6905H25.0121C25.0121 82.3813 25.0121 82.072 25.0121 81.8014C25.0507 81.1056 25.3213 80.487 25.9012 80.1391C26.4811 79.7912 27.2542 79.7525 27.8728 80.0231C28.4913 80.2937 28.8779 80.8736 28.9552 81.5308C29.0325 81.9174 28.9939 82.304 28.9939 82.6905H30.5402C30.5402 82.1493 30.5789 81.5695 30.4629 81.0282C30.2696 80.1391 29.6897 79.4046 28.8779 78.9407C28.6846 78.8247 28.4913 78.786 28.298 78.7087C28.8006 78.4381 29.3031 78.1288 29.6511 77.6263ZM16.6618 77.317V79.018C16.6232 78.9793 16.5845 78.9407 16.5845 78.902C15.6567 77.9742 14.2263 77.6649 12.9893 77.8582V76.2346C12.9893 75.9253 12.9893 75.616 13.0666 75.3454C13.2212 74.7656 13.6465 74.3017 14.1877 74.1084C14.7676 73.9151 15.4247 73.9924 15.9273 74.379C16.3912 74.7269 16.6618 75.3068 16.6618 75.9253C16.6618 76.3892 16.6618 76.8145 16.6618 77.317ZM18.2082 82.6905V75.9253C18.2082 74.6882 17.7056 73.5285 16.5845 72.91C15.2315 72.1368 13.2599 72.3687 12.2161 73.5671C11.7135 74.147 11.4429 74.8815 11.4043 75.616C11.4043 75.8093 11.4043 82.6905 11.4043 82.6905H12.9506V79.3273C13.8397 79.2113 14.8835 79.2886 15.6567 79.8298C16.3525 80.3324 16.6618 81.1056 16.6618 81.956C16.6618 82.188 16.6618 82.6519 16.6618 82.6519H18.2082V82.6905ZM1.585 74.0697H3.05402C3.90451 74.0697 4.79365 74.3403 5.10292 75.1521C5.29622 75.6547 5.25756 76.3892 4.94829 76.8531C4.5617 77.3943 3.94317 77.7423 3.36329 78.0129C2.7061 78.3221 2.08756 78.6701 1.50768 79.0953L1.585 74.0697ZM3.90451 79.3273C4.755 78.902 5.72146 78.4768 6.30134 77.6649C6.8039 76.9691 6.95853 76.0026 6.76524 75.1521C6.6106 74.1857 5.91475 73.4125 5.06426 72.9486C4.32975 72.6007 3.47927 72.5234 2.66744 72.5234H0V82.6132H1.585C1.585 82.0334 1.54634 81.4535 1.77829 80.9123C2.16488 80.1391 3.09268 79.7138 3.90451 79.3273Z" fill="white"/>
<path d="M76.7372 100.087C76.7372 104.687 73.026 108.398 68.4256 108.398C64.1345 108.398 60.5393 105.112 60.1527 100.821C60.6552 100.86 61.1191 100.976 61.583 101.131C62.1629 104.919 65.6808 107.548 69.4694 106.968C73.2579 106.388 75.8867 102.87 75.3068 99.0817C74.7269 95.2932 71.209 92.6644 67.4205 93.2443C64.1732 93.7082 61.7377 96.4143 61.5057 99.6616C61.0418 99.5456 60.5779 99.4683 60.114 99.4297C60.5006 94.868 64.5211 91.466 69.0828 91.8526C73.4125 92.2005 76.7372 95.7958 76.7372 100.087Z" fill="white"/>
<path d="M59.4568 100.783C62.8588 100.783 65.7968 103.296 66.2994 106.659C66.7633 106.813 67.2272 106.929 67.7297 106.968C67.3431 102.677 63.7479 99.391 59.4568 99.391C59.2249 99.391 58.9542 99.391 58.7223 99.4297C58.7223 99.6616 58.7609 99.8549 58.7609 100.087C58.7609 100.319 58.7609 100.589 58.7223 100.821C58.9542 100.821 59.2249 100.783 59.4568 100.783ZM66.338 108.128C66.1061 111.955 62.8201 114.854 58.9929 114.584C55.1657 114.352 52.2663 111.066 52.5369 107.239C52.7302 104.417 54.5858 101.981 57.2919 101.092C57.3306 100.744 57.3692 100.396 57.3692 100.048C57.3692 99.8936 57.3692 99.7776 57.3692 99.623C52.9235 100.783 50.2561 105.306 51.4158 109.751C52.5756 114.197 57.0986 116.865 61.5444 115.705C64.985 114.816 67.4591 111.839 67.7297 108.321C67.2658 108.321 66.8019 108.244 66.338 108.128Z" fill="white"/>
<path d="M50.4493 91.814C46.1196 91.814 42.5243 95.1386 42.1764 99.4683C42.6403 99.507 43.1042 99.5843 43.5294 99.7003C43.7614 95.8731 47.0474 92.9737 50.8746 93.2443C54.7018 93.4763 57.6011 96.7623 57.3305 100.589C57.1372 103.412 55.2816 105.847 52.5755 106.736C52.5369 107.084 52.4982 107.432 52.4982 107.78C52.4982 107.935 52.4982 108.051 52.4982 108.205C56.9439 107.045 59.6114 102.522 58.4516 98.0766C57.5238 94.3654 54.2378 91.814 50.4493 91.814ZM50.4493 107.007C47.0087 107.007 44.1093 104.494 43.6068 101.131C43.1429 100.976 42.679 100.86 42.1764 100.821C42.563 105.112 46.1582 108.398 50.4493 108.398C50.6813 108.398 50.9132 108.398 51.1838 108.36C51.1838 108.128 51.1452 107.935 51.1452 107.703C51.1452 107.471 51.1452 107.2 51.1838 106.968C50.9519 107.007 50.6813 107.007 50.4493 107.007Z" fill="white"/>
<path d="M40.7461 100.821C40.7848 100.589 40.7848 100.319 40.7848 100.087C40.7848 99.8549 40.7848 99.6616 40.7461 99.4297C40.9781 99.391 41.21 99.391 41.4806 99.391C45.7717 99.391 49.367 102.677 49.7535 106.968C49.251 106.929 48.7871 106.813 48.3232 106.659C47.8206 103.296 44.9212 100.783 41.4806 100.783C41.21 100.783 40.9781 100.821 40.7461 100.821ZM49.7535 108.36C49.4056 112.921 45.3851 116.323 40.8234 115.976C36.2617 115.628 32.8598 111.607 33.2077 107.045C33.4783 103.527 35.9911 100.551 39.3931 99.6616C39.3931 99.8163 39.3931 99.9322 39.3931 100.087C39.3931 100.435 39.3544 100.783 39.3157 101.131C35.6818 102.329 33.7103 106.234 34.9087 109.867C36.1071 113.501 40.0116 115.473 43.6455 114.275C46.3516 113.385 48.2072 110.95 48.4005 108.128C48.8257 108.244 49.2896 108.321 49.7535 108.36Z" fill="white"/>
<path d="M40.7848 100.087C40.7848 95.4865 37.0736 91.7753 32.4732 91.7753C27.8728 91.7753 24.1616 95.4865 24.1616 100.087C24.1616 104.687 27.8728 108.398 32.4732 108.398C32.7052 108.398 32.9371 108.398 33.2077 108.36C33.2077 108.128 33.1691 107.935 33.1691 107.703C33.1691 107.471 33.1691 107.2 33.2077 106.968C32.9758 107.007 32.7438 107.007 32.4732 107.007C28.646 107.007 25.5533 103.875 25.592 100.048C25.592 96.221 28.7233 93.1283 32.5505 93.167C36.3777 93.167 39.4704 96.2983 39.4317 100.126C39.4317 103.102 37.4988 105.77 34.6767 106.659C34.6381 107.007 34.5994 107.355 34.5994 107.703C34.5994 107.857 34.5994 107.973 34.5994 108.128C38.2333 107.2 40.7848 103.875 40.7848 100.087Z" fill="white"/>
</svg>
